<?xml version="1.0" encoding="UTF-8" standalone="no"?>
<svg
   xmlns:dc="http://purl.org/dc/elements/1.1/"
   xmlns:cc="http://creativecommons.org/ns#"
   xmlns:rdf="http://www.w3.org/1999/02/22-rdf-syntax-ns#"
   xmlns:svg="http://www.w3.org/2000/svg"
   xmlns="http://www.w3.org/2000/svg"
   xmlns:sodipodi="http://sodipodi.sourceforge.net/DTD/sodipodi-0.dtd"
   xmlns:inkscape="http://www.inkscape.org/namespaces/inkscape"
   version="1.1"
   id="svg2"
   xml:space="preserve"
   width="1080.0267"
   height="644.45331"
   viewBox="0 0 1080.0267 644.45331"
   sodipodi:docname="cat-face-seeklogo.com.eps"><metadata
     id="metadata8"><rdf:RDF><cc:Work
         rdf:about=""><dc:format>image/svg+xml</dc:format><dc:type
           rdf:resource="http://purl.org/dc/dcmitype/StillImage" /></cc:Work></rdf:RDF></metadata><defs
     id="defs6"><clipPath
       clipPathUnits="userSpaceOnUse"
       id="clipPath22"><path
         d="m 6562.94,3626.87 c 7.65,-333.49 -256.49,-610.04 -589.98,-617.69 -333.5,-7.65 -610.04,256.49 -617.69,589.98 -7.65,333.49 256.49,610.04 589.99,617.69 333.48,7.65 610.03,-256.49 617.68,-589.98 z"
         id="path20" /></clipPath><radialGradient
       fx="0"
       fy="0"
       cx="0"
       cy="0"
       r="1"
       gradientUnits="userSpaceOnUse"
       gradientTransform="matrix(540.254,-270.338,-270.338,-540.254,5959.1,3613.02)"
       spreadMethod="pad"
       id="radialGradient28"><stop
         style="stop-opacity:1;stop-color:#439ec1"
         offset="0"
         id="stop24" /><stop
         style="stop-opacity:1;stop-color:#35518c"
         offset="1"
         id="stop26" /></radialGradient><clipPath
       clipPathUnits="userSpaceOnUse"
       id="clipPath44"><path
         d="m 1704.29,3626.87 c -7.64,-333.49 256.5,-610.04 589.99,-617.69 333.5,-7.65 610.04,256.49 617.69,589.98 7.66,333.49 -256.49,610.04 -589.98,617.69 -333.49,7.65 -610.04,-256.49 -617.7,-589.98 z"
         id="path42" /></clipPath><radialGradient
       fx="0"
       fy="0"
       cx="0"
       cy="0"
       r="1"
       gradientUnits="userSpaceOnUse"
       gradientTransform="matrix(-540.254,-270.338,270.338,-540.254,2308.14,3613.02)"
       spreadMethod="pad"
       id="radialGradient50"><stop
         style="stop-opacity:1;stop-color:#439ec1"
         offset="0"
         id="stop46" /><stop
         style="stop-opacity:1;stop-color:#35518c"
         offset="1"
         id="stop48" /></radialGradient></defs><sodipodi:namedview
     pagecolor="#ffffff"
     bordercolor="#666666"
     borderopacity="1"
     objecttolerance="10"
     gridtolerance="10"
     guidetolerance="10"
     inkscape:pageopacity="0"
     inkscape:pageshadow="2"
     inkscape:window-width="640"
     inkscape:window-height="480"
     id="namedview4" /><g
     id="g10"
     inkscape:groupmode="layer"
     inkscape:label="ink_ext_XXXXXX"
     transform="matrix(1.3333333,0,0,-1.3333333,0,644.45333)"><g
       id="g12"
       transform="scale(0.1)"><path
         d="m 6319.93,4123.05 c -56.51,-1.3 -103.39,43.47 -104.68,100 -1.3,56.52 43.46,103.39 100,104.69 56.51,1.3 103.39,-43.47 104.68,-100 1.3,-56.52 -43.46,-103.4 -100,-104.69 z m -379.61,308.72 c -452.19,-10.37 -810.35,-385.34 -799.98,-837.54 10.37,-452.19 385.36,-810.35 837.54,-799.98 452.19,10.38 810.35,385.36 799.98,837.55 -10.37,452.19 -385.35,810.35 -837.54,799.97"
         style="fill:#3c71a8;fill-opacity:1;fill-rule:nonzero;stroke:none"
         id="path14" /><g
         id="g16"><g
           id="g18"
           clip-path="url(#clipPath22)"><path
             d="m 6562.94,3626.87 c 7.65,-333.49 -256.49,-610.04 -589.98,-617.69 -333.5,-7.65 -610.04,256.49 -617.69,589.98 -7.65,333.49 256.49,610.04 589.99,617.69 333.48,7.65 610.03,-256.49 617.68,-589.98"
             style="fill:url(#radialGradient28);fill-opacity:1;fill-rule:nonzero;stroke:none"
             id="path30" /></g></g><path
         d="m 5883.8,3611.29 c -7.65,333.49 37.35,605.01 100.52,606.46 63.15,1.45 120.56,-267.73 128.21,-601.21 7.66,-333.49 -37.35,-605.01 -100.51,-606.46 -63.16,-1.45 -120.56,267.72 -128.22,601.21"
         style="fill:#231f20;fill-opacity:1;fill-rule:nonzero;stroke:none"
         id="path32" /><path
         d="m 6695.82,3244.14 c -270.4,-330.48 -586.57,-477.83 -1025.2,-477.83 -171.16,0 -337.75,21.2 -498.87,41.71 -48.38,6.16 -95.83,12.17 -142.28,17.44 -100.89,11.45 -192.76,67.04 -245.06,154.07 -1.42,2.36 -2.82,4.72 -4.18,7.08 -43.61,74.9 -55.1,164.41 -33.28,248.3 0.96,3.74 1.95,7.48 2.94,11.23 138.65,522.03 414.65,806.75 823.44,1024.14 845.2,449.47 1683.77,130.9 2076.34,-142.3 -278.35,-115.3 -526.87,-362.02 -953.85,-883.84 z M 5431.65,4549.62 c -1118.42,-598.65 -1133.44,-2214 -1133.44,-2214 312.68,615.57 1802.79,-472.61 2591.92,749.53 698.98,1082.53 1210.09,882.84 1210.09,882.84 -731.15,1000.53 -1803.1,1044.89 -2668.57,581.63"
         style="fill:#2f3132;fill-opacity:1;fill-rule:nonzero;stroke:none"
         id="path34" /><path
         d="m 1847.3,4227.74 c 1.3,56.53 48.17,101.3 104.7,100 56.52,-1.3 101.29,-48.17 99.99,-104.69 -1.29,-56.53 -48.16,-101.3 -104.69,-100 -56.52,1.29 -101.29,48.17 -100,104.69 z M 1489.37,3631.8 c -10.37,-452.19 347.79,-827.17 799.98,-837.55 452.19,-10.37 827.18,347.79 837.55,799.98 10.37,452.2 -347.8,827.17 -799.98,837.54 -452.19,10.38 -827.17,-347.78 -837.55,-799.97"
         style="fill:#3c71a8;fill-opacity:1;fill-rule:nonzero;stroke:none"
         id="path36" /><g
         id="g38"><g
           id="g40"
           clip-path="url(#clipPath44)"><path
             d="m 1704.29,3626.87 c -7.64,-333.49 256.5,-610.04 589.99,-617.69 333.5,-7.65 610.04,256.49 617.69,589.98 7.66,333.49 -256.49,610.04 -589.98,617.69 -333.49,7.65 -610.04,-256.49 -617.7,-589.98"
             style="fill:url(#radialGradient50);fill-opacity:1;fill-rule:nonzero;stroke:none"
             id="path52" /></g></g><path
         d="m 2383.43,3611.29 c 7.65,333.49 -37.35,605.01 -100.51,606.46 -63.16,1.45 -120.57,-267.73 -128.22,-601.21 -7.65,-333.49 37.35,-605.01 100.52,-606.46 63.16,-1.45 120.56,267.72 128.21,601.21"
         style="fill:#231f20;fill-opacity:1;fill-rule:nonzero;stroke:none"
         id="path54" /><path
         d="m 617.566,4127.98 c 392.574,273.2 1231.144,591.77 2076.344,142.3 408.78,-217.39 684.78,-502.11 823.44,-1024.14 0.99,-3.75 1.97,-7.49 2.94,-11.23 21.81,-83.89 10.33,-173.4 -33.28,-248.3 -1.37,-2.36 -2.77,-4.72 -4.19,-7.08 -52.3,-87.03 -144.17,-142.62 -245.05,-154.07 -46.45,-5.27 -93.91,-11.28 -142.29,-17.44 -161.11,-20.51 -327.71,-41.71 -498.86,-41.71 -438.63,0 -754.81,147.35 -1025.21,477.83 -426.98,521.82 -675.496,768.54 -953.844,883.84 z m -450.55,-159.99 c 0,0 511.105,199.69 1210.094,-882.84 789.13,-1222.14 2279.24,-133.96 2591.91,-749.53 0,0 -15.01,1615.35 -1133.43,2214 -865.47,463.26 -1937.43,418.9 -2668.574,-581.63"
         style="fill:#2f3132;fill-opacity:1;fill-rule:nonzero;stroke:none"
         id="path56" /><path
         d="m 4736.18,1646.76 c 1923.17,498.32 3294.55,537.4 3294.55,537.4 -742.58,361.53 -3294.55,-537.4 -3294.55,-537.4"
         style="fill:#2f3132;fill-opacity:1;fill-rule:nonzero;stroke:none"
         id="path58" /><path
         d="M 8012.58,819.961 C 7431.62,1407.03 4725.97,1404.03 4725.97,1404.03 6705.64,1237.29 8012.58,819.961 8012.58,819.961"
         style="fill:#2f3132;fill-opacity:1;fill-rule:nonzero;stroke:none"
         id="path60" /><path
         d="m 7763.4,24.1914 c 0,0 -1341.17,288.9566 -3140.94,1130.2286 0,0 2344.8,-1349.998 3140.94,-1130.2286"
         style="fill:#2f3132;fill-opacity:1;fill-rule:nonzero;stroke:none"
         id="path62" /><path
         d="m 0,2184.16 c 0,0 1371.39,-39.08 3294.55,-537.4 0,0 -2551.956,898.93 -3294.55,537.4"
         style="fill:#2f3132;fill-opacity:1;fill-rule:nonzero;stroke:none"
         id="path64" /><path
         d="m 18.1602,819.961 c 0,0 1306.9398,417.329 3286.6098,584.069 0,0 -2705.653,3 -3286.6098,-584.069"
         style="fill:#2f3132;fill-opacity:1;fill-rule:nonzero;stroke:none"
         id="path66" /><path
         d="M 3408.28,1154.42 C 1608.51,313.148 267.336,24.1914 267.336,24.1914 1063.48,-195.578 3408.28,1154.42 3408.28,1154.42"
         style="fill:#2f3132;fill-opacity:1;fill-rule:nonzero;stroke:none"
         id="path68" /><path
         d="m 4220.1,1057.37 c -20.49,81.98 -54.43,173.28 -82.08,241.6 101.64,58.54 342.31,230.11 365.37,552.98 3.12,43.59 -254.04,195.42 -410.38,166.11 -156.33,29.31 -413.48,-122.52 -410.37,-166.11 23.06,-322.86 263.73,-494.44 365.38,-552.98 -27.66,-68.32 -61.59,-159.62 -82.09,-241.6 -39.08,-156.339 -371.29,-184.909 -381.07,-395.358 h 508.15 508.16 c -9.77,210.449 -341.98,239.019 -381.07,395.358"
         style="fill:#2f3132;fill-opacity:1;fill-rule:nonzero;stroke:none"
         id="path70" /></g></g></svg>
